<svg width="30" height="30" viewBox="0 0 30 30" fill="none" xmlns="http://www.w3.org/2000/svg">
<g clip-path="url(#clip0_4_11)">
<path d="M14.7094 0H15.2982C18.2908 0.0800781 21.0039 0.945703 23.4375 2.59687C25.2393 3.81855 26.7832 5.46504 27.8871 7.31191C29.232 9.5623 29.9363 12.0287 30 14.7111V15.2982C29.9414 17.7564 29.3537 20.0141 28.2369 22.0711C27.258 23.8746 25.9961 25.4008 24.4512 26.6496C21.8082 28.7871 18.7549 29.9039 15.2912 30H14.7018C11.6939 29.9195 8.96914 29.0459 6.52734 27.3791C4.74141 26.1604 3.20977 24.5227 2.11289 22.6881C0.768359 20.4377 0.0640625 17.9715 0 15.2895V14.7023C0.065625 12.0121 0.775391 9.53965 2.1293 7.28496C3.22969 5.45215 4.76543 3.81738 6.5543 2.60215C8.99219 0.945898 11.7105 0.0785156 14.7094 0ZM6.60469 7.77598C6.44063 8.64434 5.22363 8.74512 4.92012 7.91543C4.87207 7.78379 4.85195 7.58242 4.85977 7.31133C4.8668 7.05664 4.86719 6.8002 4.86094 6.54199C4.86016 6.51074 4.8498 6.50723 4.82988 6.53145C3.68652 7.91191 2.85391 9.45078 2.33203 11.148C2.33139 11.1502 2.33125 11.1524 2.33163 11.1545C2.332 11.1567 2.33288 11.1588 2.33419 11.1605C2.3355 11.1623 2.33721 11.1637 2.33917 11.1647C2.34114 11.1657 2.34331 11.1662 2.34551 11.1662L5.04199 11.1656C5.05099 11.1656 5.05976 11.163 5.06718 11.1581C5.07459 11.1532 5.08031 11.1462 5.08359 11.1381C5.27578 10.6619 5.57344 10.2793 5.97656 9.99023C7.11738 9.17168 8.72519 9.45469 9.52324 10.6172C9.82988 11.0641 9.97715 11.557 9.96504 12.0961C9.9502 12.7809 9.69473 13.3689 9.19863 13.8604C8.7293 14.3256 8.07012 14.5799 7.40273 14.5711C6.3709 14.5576 5.46211 13.9172 5.0877 12.958C5.08392 12.9483 5.07731 12.94 5.06874 12.9342C5.06017 12.9283 5.05003 12.9252 5.03965 12.9252L1.95937 12.9258C1.93594 12.9258 1.92246 12.9375 1.91895 12.9609C1.54824 15.4793 1.84102 17.8701 2.79727 20.1334C4.13672 23.3027 6.68379 25.8598 9.84785 27.1939C12.1037 28.1447 14.4549 28.4469 16.9014 28.1004C16.9071 28.0995 16.9123 28.0967 16.9161 28.0924C16.9199 28.0881 16.9219 28.0826 16.9219 28.077C16.9234 22.6496 16.9223 17.2549 16.9184 11.8928C16.918 11.6408 16.9377 11.4551 16.9775 11.3355C17.0541 11.1063 17.2197 10.932 17.4744 10.8129C17.5893 10.7594 17.8246 10.7371 18.1805 10.7461C18.4578 10.7531 19.416 10.7535 21.0551 10.7473C21.0727 10.7473 21.0859 10.7398 21.0949 10.725C21.1729 10.602 21.2303 10.4695 21.3182 10.3512C21.6975 9.83906 22.1822 9.5084 22.7725 9.35918C23.6273 9.14355 24.576 9.41309 25.1854 10.0465C25.6459 10.5258 25.8855 11.0939 25.9043 11.751C25.9336 12.7793 25.3277 13.7121 24.3955 14.1223C22.9922 14.7393 21.423 13.9922 20.9607 12.5373C20.9582 12.529 20.953 12.5217 20.946 12.5165C20.9389 12.5113 20.9303 12.5086 20.9215 12.5086L18.7154 12.5092C18.6916 12.5092 18.6797 12.5209 18.6797 12.5443V27.6844C18.6797 27.688 18.6806 27.6917 18.6823 27.6949C18.6839 27.6982 18.6863 27.701 18.6892 27.7032C18.6921 27.7054 18.6955 27.7068 18.699 27.7074C18.7025 27.708 18.7062 27.7077 18.7096 27.7066C19.3416 27.5195 19.9467 27.2928 20.5248 27.0264C20.5463 27.0166 20.557 27 20.557 26.9766C20.5527 25.6016 20.5508 24.302 20.5512 23.0777C20.5512 22.8605 20.5727 22.6957 20.6156 22.5832C20.7973 22.108 21.3516 21.8895 21.8086 22.1115C22.0547 22.2311 22.208 22.4109 22.2686 22.6512C22.3006 22.7781 22.3158 22.9563 22.3143 23.1855C22.3076 24.1996 22.307 25.1363 22.3125 25.9957C22.3129 26.0199 22.323 26.0252 22.343 26.0115C22.6898 25.7768 23.026 25.5281 23.3514 25.2656C23.3678 25.2523 23.376 25.2352 23.376 25.2141C23.3807 24.1301 23.3803 23.0193 23.3748 21.8818C23.3736 21.6572 23.4037 21.4801 23.465 21.3504C23.8266 20.5875 24.9861 20.7398 25.1197 21.5783C25.1357 21.6787 25.1416 21.8496 25.1373 22.091C25.1303 22.5316 25.1309 22.9877 25.1391 23.4592C25.1395 23.4877 25.1488 23.491 25.1672 23.4691C26.3043 22.1043 27.1363 20.5703 27.6633 18.8672C27.6699 18.8449 27.6617 18.8338 27.6387 18.8338H24.9492C24.943 18.8338 24.9369 18.8356 24.9318 18.839C24.9266 18.8423 24.9227 18.847 24.9205 18.8525C24.5232 19.8322 23.6227 20.4773 22.5744 20.4785C21.1453 20.4803 19.9881 19.3043 20.0309 17.8852C20.0504 17.2391 20.2861 16.6797 20.7381 16.207C21.2291 15.6934 21.8422 15.4344 22.5773 15.4301C23.6168 15.4242 24.5256 16.077 24.9164 17.0473C24.9197 17.0555 24.9254 17.0626 24.9328 17.0676C24.9402 17.0727 24.949 17.0754 24.958 17.0754H28.0389C28.0623 17.0754 28.0758 17.0639 28.0793 17.0408C28.4574 14.5076 28.1547 12.092 27.1711 9.79395C25.8287 6.65801 23.2834 4.12383 20.1434 2.80254C17.8281 1.82832 15.4152 1.53809 12.9047 1.93184C12.8832 1.93496 12.8725 1.94727 12.8725 1.96875C12.8729 7.48281 12.8742 12.984 12.8766 18.4723C12.8766 18.6391 12.8613 18.7773 12.8309 18.8871C12.757 19.1539 12.5832 19.343 12.3094 19.4543C12.1902 19.5031 11.9447 19.5256 11.5729 19.5217C10.7115 19.5131 9.86074 19.5119 9.02051 19.5182C8.99863 19.5182 8.98359 19.5283 8.97539 19.5486C8.77891 20.0436 8.46465 20.4375 8.03262 20.7305C6.88769 21.5062 5.31504 21.2104 4.53516 20.0637C4.22734 19.6109 4.08086 19.1111 4.0957 18.5643C4.11914 17.6936 4.59375 16.8937 5.35019 16.4555C6.70488 15.6715 8.4041 16.2826 8.97539 17.727C8.97903 17.7361 8.98532 17.744 8.99347 17.7495C9.00162 17.755 9.01124 17.758 9.02109 17.758H11.0789C11.1043 17.758 11.117 17.7453 11.117 17.7199V2.36133C11.117 2.35934 11.1165 2.35739 11.1156 2.35562C11.1147 2.35385 11.1134 2.3523 11.1118 2.35111C11.1102 2.34992 11.1084 2.34911 11.1065 2.34875C11.1045 2.34839 11.1025 2.34848 11.1006 2.34902C10.5521 2.52012 10.0115 2.72695 9.47871 2.96953C9.45879 2.97891 9.44883 2.99434 9.44883 3.01582C9.44375 4.04043 9.44492 5.12578 9.45234 6.27187C9.45527 6.6791 9.34629 7.02363 8.96953 7.21758C8.70547 7.35391 8.4334 7.35176 8.15332 7.21113C7.84043 7.05332 7.68496 6.75879 7.68691 6.32754C7.69043 5.52754 7.69141 4.7541 7.68984 4.00723C7.68945 3.97949 7.67793 3.97324 7.65527 3.98848C7.3209 4.21348 6.98457 4.46211 6.64629 4.73438C6.63145 4.74648 6.62383 4.76211 6.62344 4.78125C6.62109 5.60859 6.62012 6.41269 6.62051 7.19355C6.62051 7.5248 6.61523 7.71895 6.60469 7.77598ZM24.1512 11.8119C24.1512 11.608 24.0702 11.4125 23.926 11.2683C23.7818 11.1242 23.5863 11.0432 23.3824 11.0432C23.1785 11.0432 22.983 11.1242 22.8388 11.2683C22.6947 11.4125 22.6137 11.608 22.6137 11.8119C22.6137 11.9129 22.6336 12.0128 22.6722 12.1061C22.7108 12.1994 22.7674 12.2841 22.8388 12.3555C22.9102 12.4269 22.995 12.4835 23.0882 12.5221C23.1815 12.5608 23.2815 12.5807 23.3824 12.5807C23.4834 12.5807 23.5833 12.5608 23.6766 12.5221C23.7699 12.4835 23.8546 12.4269 23.926 12.3555C23.9974 12.2841 24.054 12.1994 24.0927 12.1061C24.1313 12.0128 24.1512 11.9129 24.1512 11.8119ZM8.2125 12.0469C8.2125 11.8431 8.13157 11.6478 7.98751 11.5037C7.84345 11.3596 7.64807 11.2787 7.44434 11.2787C7.24061 11.2787 7.04522 11.3596 6.90116 11.5037C6.7571 11.6478 6.67617 11.8431 6.67617 12.0469C6.67617 12.2506 6.7571 12.446 6.90116 12.59C7.04522 12.7341 7.24061 12.815 7.44434 12.815C7.64807 12.815 7.84345 12.7341 7.98751 12.59C8.13157 12.446 8.2125 12.2506 8.2125 12.0469ZM23.3238 17.9531C23.3238 17.7494 23.2429 17.554 23.0988 17.41C22.9548 17.2659 22.7594 17.185 22.5557 17.185C22.3519 17.185 22.1565 17.2659 22.0125 17.41C21.8684 17.554 21.7875 17.7494 21.7875 17.9531C21.7875 18.1569 21.8684 18.3522 22.0125 18.4963C22.1565 18.6404 22.3519 18.7213 22.5557 18.7213C22.7594 18.7213 22.9548 18.6404 23.0988 18.4963C23.2429 18.3522 23.3238 18.1569 23.3238 17.9531ZM7.38633 18.6381C7.38633 18.4342 7.30534 18.2387 7.16117 18.0945C7.017 17.9503 6.82146 17.8693 6.61758 17.8693C6.41369 17.8693 6.21816 17.9503 6.07399 18.0945C5.92982 18.2387 5.84883 18.4342 5.84883 18.6381C5.84883 18.842 5.92982 19.0375 6.07399 19.1817C6.21816 19.3258 6.41369 19.4068 6.61758 19.4068C6.82146 19.4068 7.017 19.3258 7.16117 19.1817C7.30534 19.0375 7.38633 18.842 7.38633 18.6381Z" fill="#12376B"/>
<path d="M13.6535 22.841C13.6916 23.2922 13.6429 23.7217 13.4771 24.1207C12.8648 25.592 11.0765 26.1363 9.75408 25.2639C8.59041 24.4963 8.26463 22.9295 9.03923 21.7658C9.52556 21.0352 10.3377 20.6121 11.2195 20.6355C11.7941 20.6508 12.3164 20.8525 12.7863 21.2408C12.7931 21.2462 12.8013 21.2495 12.8098 21.2504C12.8184 21.2512 12.8269 21.2495 12.8344 21.2455L13.9898 20.6221C14.009 20.6119 14.0185 20.5959 14.0185 20.574C14.0181 16.8756 14.0183 13.1766 14.0191 9.47696C14.0191 9.14239 14.1726 8.90977 14.4281 8.69707C15.3469 7.93379 16.2465 7.18262 17.1269 6.44356C17.1337 6.43761 17.1387 6.42986 17.1412 6.42123C17.1437 6.4126 17.1436 6.40347 17.141 6.39493C16.9476 5.78125 16.967 5.19024 17.199 4.62188C17.6508 3.51387 18.8361 2.87344 20.0133 3.10137C20.3519 3.1666 20.6586 3.29317 20.9332 3.48106C21.5 3.86856 21.8553 4.38809 21.999 5.03965C22.19 5.90215 21.9123 6.8086 21.2648 7.41563C20.4545 8.175 19.275 8.31739 18.3029 7.79121C18.2849 7.78145 18.2679 7.78321 18.2519 7.79649L15.7863 9.85371C15.7828 9.85667 15.78 9.8603 15.7781 9.86435C15.7762 9.8684 15.7752 9.87277 15.7752 9.87715C15.7775 13.6279 15.7773 17.3717 15.7746 21.1084C15.7746 21.5701 15.5097 21.8074 15.1078 22.0195C14.614 22.2801 14.1385 22.5365 13.681 22.7889C13.6607 22.8002 13.6515 22.8176 13.6535 22.841ZM20.3027 5.5793C20.3027 5.37557 20.2218 5.18018 20.0777 5.03613C19.9337 4.89207 19.7383 4.81114 19.5345 4.81114C19.3308 4.81114 19.1354 4.89207 18.9914 5.03613C18.8473 5.18018 18.7664 5.37557 18.7664 5.5793C18.7664 5.78303 18.8473 5.97842 18.9914 6.12247C19.1354 6.26653 19.3308 6.34746 19.5345 6.34746C19.7383 6.34746 19.9337 6.26653 20.0777 6.12247C20.2218 5.97842 20.3027 5.78303 20.3027 5.5793ZM11.9109 23.1586C11.9109 23.0577 11.891 22.9578 11.8524 22.8646C11.8138 22.7714 11.7573 22.6868 11.6859 22.6154C11.6146 22.5441 11.5299 22.4875 11.4367 22.4489C11.3435 22.4103 11.2436 22.3904 11.1428 22.3904C11.0419 22.3904 10.942 22.4103 10.8488 22.4489C10.7556 22.4875 10.6709 22.5441 10.5996 22.6154C10.5282 22.6868 10.4717 22.7714 10.4331 22.8646C10.3945 22.9578 10.3746 23.0577 10.3746 23.1586C10.3746 23.3623 10.4555 23.5577 10.5996 23.7018C10.7436 23.8458 10.939 23.9268 11.1428 23.9268C11.3465 23.9268 11.5419 23.8458 11.6859 23.7018C11.83 23.5577 11.9109 23.3623 11.9109 23.1586Z" fill="#12376B"/>
</g>
<defs>
<clipPath id="clip0_4_11">
<rect width="30" height="30" fill="white"/>
</clipPath>
</defs>
</svg>
