<svg width="30" height="30" viewBox="0 0 30 30" fill="none" xmlns="http://www.w3.org/2000/svg">
<g clip-path="url(#clip0_4_4)">
<path d="M6.3 0H6.81445C10.7848 0.216211 13.6066 3.74883 12.9498 7.67578C12.9482 7.68573 12.9489 7.69589 12.952 7.70537C12.955 7.71486 12.9603 7.7234 12.9674 7.73027L14.9877 9.75059C14.9909 9.75391 14.9954 9.75578 15.0001 9.75578C15.0048 9.75578 15.0094 9.75391 15.0129 9.75059C18.1949 6.56816 21.3781 3.38496 24.5625 0.200977C24.6645 0.0990234 24.8271 0.0320312 25.0506 0H25.21C25.4307 0.0324219 25.6242 0.131836 25.7906 0.298242C27.1039 1.61191 28.4174 2.92539 29.7311 4.23867C29.8701 4.37773 29.9598 4.55449 30 4.76895V4.95352C29.968 5.17109 29.8756 5.35625 29.7229 5.50898C26.565 8.67031 23.4072 11.8299 20.2494 14.9877C20.2462 14.991 20.2444 14.9954 20.2444 15C20.2444 15.0046 20.2462 15.009 20.2494 15.0123L22.2633 17.0262C22.2785 17.0414 22.2969 17.0475 22.3184 17.0443C22.4293 17.0271 22.5418 17.0119 22.6559 16.9986C26.5072 16.5457 29.8131 19.3793 30 23.2383V23.7334C29.9613 24.5029 29.8 25.243 29.516 25.9535C29.352 26.3654 29.1609 26.7117 28.6846 26.775C28.3131 26.8248 28.0816 26.6689 27.8168 26.4023C26.8121 25.3918 25.8141 24.393 24.8227 23.4059C24.8201 23.4033 24.817 23.4012 24.8137 23.3998C24.8103 23.3984 24.8067 23.3976 24.803 23.3976C24.7994 23.3976 24.7958 23.3984 24.7924 23.3998C24.789 23.4012 24.786 23.4033 24.7834 23.4059L23.4 24.7893C23.3981 24.7912 23.3966 24.7935 23.3956 24.796C23.3945 24.7985 23.394 24.8011 23.394 24.8038C23.394 24.8065 23.3945 24.8091 23.3956 24.8115C23.3966 24.814 23.3981 24.8161 23.4 24.818C24.4484 25.868 25.4854 26.9051 26.5107 27.9293C26.8617 28.2791 26.8805 28.8234 26.5383 29.1803C26.4457 29.2771 26.2637 29.3816 25.9922 29.4937C25.2609 29.7953 24.4953 29.9641 23.6953 30H23.1979C21.6053 29.9121 20.2467 29.3586 19.1221 28.3395C17.4322 26.8078 16.6646 24.5684 17.0514 22.3125C17.0525 22.3062 17.052 22.2996 17.0501 22.2934C17.0482 22.2872 17.0448 22.2815 17.0402 22.2768L15.0129 20.2494C15.0096 20.2462 15.0052 20.2444 15.0006 20.2444C14.996 20.2444 14.9916 20.2462 14.9883 20.2494C12.6977 22.5389 10.4209 24.8154 8.15801 27.0791C8.09004 27.1477 7.97344 27.2303 7.89609 27.2613C5.66484 28.1543 3.4332 29.0467 1.20117 29.9385C1.15078 29.9584 1.06699 29.9789 0.949805 30H0.801563C0.352344 29.9262 0.0851563 29.6656 0 29.2184V28.9969C0.894141 26.7141 1.80313 24.4266 2.72695 22.1344C2.77207 22.0225 2.84063 21.9223 2.92383 21.8391C5.1543 19.6082 7.42598 17.3369 9.73887 15.0252C9.75566 15.0084 9.75566 14.9916 9.73887 14.9748L7.73203 12.968C7.71641 12.9527 7.69785 12.9469 7.67637 12.9504C3.73535 13.6236 0.210938 10.7654 0 6.7916V6.24902C0.0464844 5.3627 0.260937 4.52168 0.643359 3.72598C0.798828 3.40254 1.04883 3.23164 1.39336 3.21328C1.64688 3.2 1.87422 3.29395 2.07539 3.49512C3.1332 4.55215 4.16699 5.58555 5.17676 6.59531C5.17932 6.59792 5.18238 6.59999 5.18575 6.6014C5.18912 6.60281 5.19273 6.60354 5.19639 6.60354C5.20004 6.60354 5.20366 6.60281 5.20703 6.6014C5.2104 6.59999 5.21345 6.59792 5.21602 6.59531L6.59531 5.21543C6.59793 5.21282 6.60002 5.20971 6.60143 5.20629C6.60285 5.20287 6.60358 5.19921 6.60358 5.19551C6.60358 5.19181 6.60285 5.18814 6.60143 5.18472C6.60002 5.1813 6.59793 5.1782 6.59531 5.17559C5.60234 4.18027 4.56367 3.14219 3.4793 2.06133C3.04043 1.62363 3.15937 0.906445 3.72363 0.639258C4.5377 0.253711 5.39648 0.040625 6.3 0ZM8.05781 11.1076C8.28633 11.1299 8.47793 11.2277 8.64023 11.39C11.9387 14.6885 15.2697 18.0193 18.6334 21.3826C18.8895 21.6387 18.9381 21.958 18.8531 22.3055C18.041 25.6219 20.8207 28.7273 24.232 28.1771C24.2535 28.1736 24.2566 28.1643 24.2414 28.149C23.4328 27.333 22.5895 26.4912 21.7113 25.6236C21.5293 25.4436 21.4102 25.2975 21.3539 25.1854C21.2422 24.9635 21.2342 24.7252 21.3299 24.4705C21.3744 24.3529 21.5068 24.1861 21.7271 23.9701C22.5619 23.151 23.3449 22.3684 24.0762 21.6223C24.3721 21.3199 24.7072 21.1746 25.1238 21.324C25.2418 21.3662 25.3811 21.4684 25.5416 21.6305C26.4318 22.5293 27.3006 23.3996 28.1479 24.2414C28.1507 24.2441 28.1543 24.246 28.1581 24.2469C28.162 24.2477 28.166 24.2475 28.1697 24.2462C28.1735 24.2449 28.1768 24.2427 28.1793 24.2397C28.1819 24.2367 28.1836 24.233 28.1842 24.2291C28.3451 23.0893 28.1494 22.041 27.5971 21.0844C26.5775 19.3172 24.5086 18.3662 22.4895 18.8127C22.318 18.8506 22.1809 18.8762 22.0781 18.8895C21.8262 18.9223 21.5596 18.8086 21.3803 18.6293C17.9807 15.2305 14.6469 11.8967 11.3789 8.62793C11.1375 8.38594 11.0543 8.07773 11.134 7.74902C11.159 7.64629 11.1813 7.54395 11.2008 7.44199C11.8254 4.16602 9.05742 1.30371 5.75449 1.82461C5.75265 1.82489 5.7509 1.82567 5.74945 1.82685C5.748 1.82803 5.74691 1.82957 5.74629 1.83128C5.74568 1.833 5.74558 1.83482 5.74599 1.83654C5.7464 1.83826 5.74732 1.83981 5.74863 1.84102C6.63809 2.73711 7.49727 3.59492 8.32617 4.41445C8.50703 4.59297 8.62129 4.74199 8.66895 4.86152C8.79551 5.17676 8.72988 5.56992 8.48555 5.8125C7.63906 6.65391 6.79121 7.50293 5.94199 8.35957C5.63086 8.67363 5.31738 8.83008 4.86973 8.6748C4.75566 8.63535 4.56797 8.4832 4.30664 8.21836C3.46016 7.36094 2.63867 6.53867 1.84219 5.75156C1.84033 5.74966 1.83797 5.74833 1.83539 5.74771C1.83281 5.7471 1.8301 5.74723 1.82759 5.74809C1.82507 5.74894 1.82286 5.7505 1.82119 5.75256C1.81952 5.75463 1.81847 5.75713 1.81816 5.75977C1.32715 9.06152 4.13848 11.8148 7.44199 11.2049C7.6459 11.1674 7.84688 11.0877 8.05781 11.1076ZM27.8606 4.89023C27.8653 4.8855 27.868 4.8791 27.868 4.87241C27.868 4.86573 27.8653 4.85932 27.8606 4.8546L25.146 2.13997C25.1413 2.13525 25.1349 2.13259 25.1282 2.13259C25.1215 2.13259 25.1151 2.13525 25.1104 2.13997L22.3941 4.85626C22.3893 4.86098 22.3867 4.86739 22.3867 4.87407C22.3867 4.88075 22.3893 4.88716 22.3941 4.89189L25.1087 7.60651C25.1134 7.61124 25.1198 7.61389 25.1265 7.61389C25.1332 7.61389 25.1396 7.61124 25.1443 7.60651L27.8606 4.89023ZM23.8661 8.88478C23.8685 8.88233 23.8705 8.87943 23.8718 8.87623C23.8731 8.87303 23.8738 8.8696 23.8738 8.86614C23.8738 8.86267 23.8731 8.85925 23.8718 8.85605C23.8705 8.85285 23.8685 8.84994 23.8661 8.84749L21.1531 6.13453C21.1506 6.13208 21.1477 6.13013 21.1445 6.12881C21.1413 6.12748 21.1379 6.1268 21.1344 6.1268C21.131 6.1268 21.1276 6.12748 21.1244 6.12881C21.1212 6.13013 21.1183 6.13208 21.1158 6.13453L16.2625 10.9879C16.26 10.9903 16.2581 10.9932 16.2567 10.9964C16.2554 10.9996 16.2547 11.0031 16.2547 11.0065C16.2547 11.01 16.2554 11.0134 16.2567 11.0166C16.2581 11.0198 16.26 11.0227 16.2625 11.0252L18.9754 13.7381C18.9779 13.7406 18.9808 13.7425 18.984 13.7438C18.9872 13.7452 18.9906 13.7459 18.9941 13.7459C18.9975 13.7459 19.001 13.7452 19.0042 13.7438C19.0074 13.7425 19.0103 13.7406 19.0127 13.7381L23.8661 8.88478ZM13.7352 19.0151C13.7381 19.0122 13.7403 19.0088 13.7419 19.005C13.7435 19.0012 13.7443 18.9972 13.7443 18.9931C13.7443 18.989 13.7435 18.985 13.7419 18.9812C13.7403 18.9775 13.7381 18.974 13.7352 18.9712L11.0288 16.2648C11.026 16.2619 11.0225 16.2596 11.0188 16.2581C11.015 16.2565 11.011 16.2557 11.0069 16.2557C11.0028 16.2557 10.9988 16.2565 10.995 16.2581C10.9912 16.2596 10.9878 16.2619 10.9849 16.2648L4.8074 22.4423C4.80452 22.4452 4.80223 22.4486 4.80067 22.4524C4.79911 22.4562 4.7983 22.4602 4.7983 22.4643C4.7983 22.4684 4.79911 22.4724 4.80067 22.4762C4.80223 22.48 4.80452 22.4834 4.8074 22.4863L7.51374 25.1926C7.51662 25.1955 7.52005 25.1978 7.52382 25.1993C7.52758 25.2009 7.53162 25.2017 7.5357 25.2017C7.53978 25.2017 7.54382 25.2009 7.54759 25.1993C7.55135 25.1978 7.55478 25.1955 7.55766 25.1926L13.7352 19.0151ZM5.94434 26.148C5.94736 26.1468 5.95004 26.1449 5.95214 26.1424C5.95424 26.1399 5.9557 26.137 5.9564 26.1338C5.95709 26.1306 5.957 26.1273 5.95612 26.1242C5.95524 26.121 5.95361 26.1182 5.95137 26.1158L3.88418 24.0486C3.88182 24.0464 3.87895 24.0448 3.87582 24.0439C3.87268 24.043 3.86938 24.0429 3.8662 24.0436C3.86302 24.0443 3.86006 24.0458 3.85758 24.0479C3.85509 24.05 3.85316 24.0526 3.85195 24.0557L2.47383 27.4998C2.47216 27.5035 2.47165 27.5076 2.47238 27.5116C2.4731 27.5156 2.47502 27.5192 2.47789 27.5221C2.48075 27.525 2.48442 27.5269 2.48841 27.5276C2.49239 27.5284 2.49651 27.5278 2.5002 27.5262L5.94434 26.148Z" fill="white"/>
</g>
<defs>
<clipPath id="clip0_4_4">
<rect width="30" height="30" fill="white"/>
</clipPath>
</defs>
</svg>
