<svg width="30" height="30" viewBox="0 0 30 30" fill="none" xmlns="http://www.w3.org/2000/svg">
<path d="M30 3.47343V24.7746C29.9004 25.2445 29.5693 25.5445 29.0988 25.5451C25.6219 25.5494 22.208 25.549 18.8572 25.5439C18.4162 25.5432 18.0951 25.5687 17.8939 25.6207C17.2881 25.7766 16.7949 26.1004 16.4145 26.5922C16.224 26.8377 16.1396 27.0844 15.8396 27.2221C15.7029 27.285 15.4998 27.3141 15.2303 27.3094C14.9896 27.3051 14.748 27.3019 14.5055 27.3C14.2898 27.298 14.0967 27.2187 13.926 27.0621C13.8199 26.9648 13.7525 26.8359 13.674 26.7164C13.1602 25.9342 12.3064 25.5445 11.3807 25.5457C7.91582 25.548 4.4123 25.548 0.870117 25.5457C0.421289 25.5457 0.0949219 25.2182 0 24.7775V3.45761C0.106055 2.98418 0.445898 2.69179 0.919336 2.69297C4.32988 2.69922 7.72012 2.69843 11.09 2.69062C11.5295 2.68984 11.8732 2.70781 12.1213 2.74453C13.2689 2.91523 14.2221 3.47558 14.9807 4.42558C14.9936 4.4416 15.0064 4.4416 15.0193 4.42558C15.7678 3.49043 16.7037 2.93242 17.8271 2.75156C18.0572 2.71445 18.327 2.6957 18.6363 2.69531C22.2625 2.69375 25.759 2.69472 29.1258 2.69824C29.5834 2.69883 29.9086 3.02168 30 3.47343ZM11.4908 23.7902C12.4166 23.7902 13.3447 24.0955 14.0912 24.6516C14.094 24.6536 14.0972 24.6548 14.1007 24.6551C14.1041 24.6555 14.1075 24.6548 14.1106 24.6533C14.1137 24.6518 14.1163 24.6495 14.1181 24.6466C14.12 24.6437 14.121 24.6403 14.1211 24.6369C14.1207 18.9068 14.1207 13.0982 14.1211 7.21113C14.1211 6.28222 13.7912 5.55586 13.1314 5.03203C12.6467 4.64765 12.0959 4.45527 11.4791 4.45488C8.28457 4.4541 5.05684 4.45449 1.7959 4.45605C1.7858 4.45605 1.77611 4.46006 1.76897 4.46721C1.76183 4.47435 1.75781 4.48404 1.75781 4.49414V23.7176C1.75781 23.7652 1.78184 23.7891 1.82988 23.7891C5.03848 23.7883 8.25879 23.7887 11.4908 23.7902ZM18.5689 4.45312C17.2898 4.45312 16.248 5.27109 15.9457 6.50918C15.8977 6.70449 15.874 7.06679 15.8748 7.59609C15.8807 13.2246 15.8818 18.9064 15.8783 24.6416C15.8782 24.6445 15.879 24.6474 15.8805 24.65C15.882 24.6525 15.8843 24.6545 15.8869 24.6559C15.8896 24.6572 15.8926 24.6578 15.8957 24.6575C15.8987 24.6573 15.9016 24.6562 15.9041 24.6545C16.49 24.2275 17.132 23.958 17.8301 23.8459C18.0758 23.8064 18.3693 23.7869 18.7107 23.7873C21.8256 23.7904 24.9977 23.7906 28.227 23.7879C28.231 23.7879 28.2349 23.7863 28.2377 23.7834C28.2406 23.7806 28.2422 23.7767 28.2422 23.7727V4.51172C28.2422 4.49618 28.236 4.48127 28.225 4.47028C28.214 4.4593 28.1991 4.45312 28.1836 4.45312C24.9645 4.45312 21.7596 4.45312 18.5689 4.45312Z" fill="#12376B"/>
<path d="M21.5092 9.24903C22.117 8.44512 22.7764 7.56602 23.4873 6.61172C23.9062 6.04922 24.7295 6.07852 25.0254 6.73067C25.1918 7.09746 25.0869 7.42032 24.8502 7.73204C24.0396 8.79883 23.2326 9.87481 22.4291 10.96C22.274 11.1697 22.1443 11.3037 22.04 11.3619C21.6691 11.5693 21.2437 11.5055 20.9496 11.2066C20.4309 10.6801 19.907 10.1574 19.3781 9.63868C19.2059 9.46993 19.0937 9.33125 19.0418 9.22266C18.943 9.0168 18.9299 8.80039 19.0025 8.57344C19.2035 7.9459 19.9898 7.77481 20.4516 8.2295C20.7863 8.55918 21.1287 8.89981 21.4787 9.25137C21.4807 9.25341 21.4831 9.25499 21.4858 9.25599C21.4885 9.25699 21.4914 9.2574 21.4943 9.25718C21.4972 9.25695 21.5 9.25611 21.5026 9.2547C21.5051 9.2533 21.5074 9.25136 21.5092 9.24903Z" fill="#12376B"/>
<path d="M9.24318 8.87637C9.38303 9.02246 9.5299 9.16836 9.68381 9.31406C9.85881 9.47969 9.9717 9.62598 10.0225 9.75293C10.3828 10.6564 9.26604 11.3801 8.5758 10.6963C8.36799 10.49 8.17229 10.2941 7.98869 10.1086C7.98439 10.1042 7.97854 10.1017 7.97241 10.1016C7.96627 10.1015 7.96034 10.1038 7.95588 10.108C7.79924 10.2557 7.64553 10.4094 7.49475 10.5691C7.32092 10.7535 7.15979 10.8703 7.01135 10.9195C6.51447 11.0842 5.99943 10.8041 5.87346 10.2891C5.79084 9.94922 5.91916 9.64043 6.16994 9.4002C6.34807 9.22949 6.52678 9.05156 6.70607 8.86641C6.71073 8.86151 6.71333 8.855 6.71333 8.84824C6.71333 8.84148 6.71073 8.83498 6.70607 8.83008C6.56154 8.67695 6.40529 8.52109 6.23732 8.3625C6.07092 8.20586 5.96193 8.05918 5.91037 7.92246C5.5717 7.03125 6.66272 6.32988 7.34826 6.98789C7.52639 7.15898 7.72424 7.35625 7.94182 7.57969C7.95783 7.59609 7.97443 7.59629 7.99162 7.58027C8.14397 7.43691 8.29162 7.28848 8.43459 7.13496C8.59787 6.95957 8.75178 6.84375 8.89631 6.7875C9.45178 6.57188 10.0694 6.9668 10.0869 7.57441C10.0944 7.82715 10.0045 8.04922 9.8174 8.24063C9.63967 8.42266 9.44865 8.61348 9.24436 8.81309C9.22326 8.83379 9.22287 8.85488 9.24318 8.87637Z" fill="#12376B"/>
<path d="M11.499 13.2439H4.37986C3.90545 13.2439 3.52087 13.6285 3.52087 14.1029V14.1393C3.52087 14.6137 3.90545 14.9982 4.37986 14.9982H11.499C11.9734 14.9982 12.358 14.6137 12.358 14.1393V14.1029C12.358 13.6285 11.9734 13.2439 11.499 13.2439Z" fill="#12376B"/>
<path d="M25.6201 13.2439H18.501C18.0265 13.2439 17.642 13.6285 17.642 14.1029V14.1393C17.642 14.6137 18.0265 14.9982 18.501 14.9982H25.6201C26.0945 14.9982 26.4791 14.6137 26.4791 14.1393V14.1029C26.4791 13.6285 26.0945 13.2439 25.6201 13.2439Z" fill="#12376B"/>
<path d="M11.499 16.7596H4.37986C3.90545 16.7596 3.52087 17.1441 3.52087 17.6186V17.6549C3.52087 18.1293 3.90545 18.5139 4.37986 18.5139H11.499C11.9734 18.5139 12.358 18.1293 12.358 17.6549V17.6186C12.358 17.1441 11.9734 16.7596 11.499 16.7596Z" fill="#12376B"/>
<path d="M25.6201 16.7596H18.501C18.0265 16.7596 17.642 17.1441 17.642 17.6186V17.6549C17.642 18.1293 18.0265 18.5139 18.501 18.5139H25.6201C26.0945 18.5139 26.4791 18.1293 26.4791 17.6549V17.6186C26.4791 17.1441 26.0945 16.7596 25.6201 16.7596Z" fill="#12376B"/>
<path d="M11.499 20.2752H4.37986C3.90545 20.2752 3.52087 20.6598 3.52087 21.1342V21.1705C3.52087 21.6449 3.90545 22.0295 4.37986 22.0295H11.499C11.9734 22.0295 12.358 21.6449 12.358 21.1705V21.1342C12.358 20.6598 11.9734 20.2752 11.499 20.2752Z" fill="#12376B"/>
<path d="M25.6201 20.2752H18.501C18.0265 20.2752 17.642 20.6598 17.642 21.1342V21.1705C17.642 21.6449 18.0265 22.0295 18.501 22.0295H25.6201C26.0945 22.0295 26.4791 21.6449 26.4791 21.1705V21.1342C26.4791 20.6598 26.0945 20.2752 25.6201 20.2752Z" fill="#12376B"/>
</svg>
