<svg width="30" height="30" viewBox="0 0 30 30" fill="none" xmlns="http://www.w3.org/2000/svg">
<g clip-path="url(#clip0_4_42)">
<path d="M3.50739 0H3.69196C3.82712 0.025 3.95212 0.0710938 4.06696 0.138281C4.89861 0.625781 5.75564 1.13066 6.63806 1.65293C6.72634 1.70566 6.81052 1.80625 6.8906 1.95469C7.16013 2.45449 6.90466 3.0041 6.39607 3.19629C6.11364 3.30293 5.83181 3.2209 5.57575 3.06914C4.78435 2.59961 3.98142 2.125 3.16696 1.64531C2.41931 1.20527 2.64782 0.138867 3.50739 0Z" fill="#12376B"/>
<path d="M26.3133 0H26.4996C26.5511 0.0125 26.6023 0.0257812 26.6531 0.0398437C27.109 0.164648 27.3299 0.597656 27.2636 1.0418C27.2185 1.34238 27.0111 1.54922 26.7551 1.69746C26.009 2.1291 25.257 2.57285 24.4992 3.02871C24.3293 3.13144 24.1812 3.19629 24.0551 3.22324C23.5488 3.33223 23.0701 2.97363 23.0109 2.46445C22.9646 2.06543 23.1709 1.75957 23.5131 1.55977C24.3115 1.09492 25.1236 0.617187 25.9494 0.126562C26.066 0.0580078 26.1849 0.0292969 26.3133 0Z" fill="#12376B"/>
<path d="M20.1205 11.9596C19.3488 13.0078 18.7922 14.3408 18.525 15.6645C18.4769 15.9035 18.4537 16.1498 18.4553 16.4033C18.4588 16.9022 18.457 17.3805 18.45 17.8383C18.4324 19.0148 17.6203 19.9787 16.4953 20.2389C16.2203 20.3025 15.8385 20.3289 15.3498 20.318C14.9814 20.3098 14.5808 20.3074 14.148 20.3109C12.689 20.3232 11.5271 19.2334 11.5336 17.765C11.5355 17.2928 11.5379 16.8371 11.5406 16.398C11.5422 16.1367 11.5211 15.8951 11.4773 15.6732C11.1949 14.2494 10.6072 12.9141 9.73885 11.7598C8.64373 10.3031 8.15096 8.63027 8.36776 6.8332C8.86815 2.69414 12.9691 0.0304695 16.9816 1.24453C19.6541 2.05313 21.5209 4.5 21.6697 7.25742C21.7424 8.60352 21.4447 9.84512 20.7767 10.9822C20.6099 11.2658 20.3912 11.5916 20.1205 11.9596ZM14.393 9.31231C14.9742 8.76445 15.8789 9.18574 15.8789 9.9668C15.8789 11.6441 15.8789 13.3213 15.8789 14.9982C15.8789 15.0264 15.893 15.0404 15.9211 15.0404H16.831C16.8407 15.0404 16.85 15.0371 16.8574 15.0312C16.8649 15.0252 16.87 15.0169 16.8721 15.0076C17.1818 13.6299 17.7435 12.3365 18.5572 11.1275C18.8191 10.7385 19.1191 10.3699 19.3418 9.95156C20.9097 7.00313 19.1701 3.39785 15.9111 2.79024C13.7273 2.38301 11.6174 3.46289 10.5978 5.43457C9.86307 6.85664 9.92283 8.53945 10.6512 9.94277C10.8691 10.3629 11.192 10.7514 11.4621 11.1521C12.2656 12.3443 12.8222 13.6299 13.132 15.0088C13.134 15.0176 13.1389 15.0254 13.1459 15.0311C13.153 15.0367 13.1617 15.0398 13.1707 15.0398L14.0941 15.0404C14.0976 15.0405 14.101 15.0399 14.1042 15.0386C14.1074 15.0373 14.1103 15.0354 14.1127 15.0329C14.1152 15.0305 14.1171 15.0275 14.1185 15.0243C14.1198 15.0211 14.1205 15.0176 14.1205 15.0141C14.1217 13.443 14.1215 11.7662 14.1199 9.98379C14.1199 9.72774 14.2055 9.48926 14.393 9.31231ZM16.6805 16.7977H13.309C13.3038 16.7977 13.2989 16.7997 13.2953 16.8033C13.2917 16.8069 13.2896 16.8119 13.2896 16.817V17.7797C13.2896 17.9861 13.374 18.184 13.5241 18.3299C13.6742 18.4758 13.8777 18.5578 14.09 18.5578H15.8994C16.1117 18.5578 16.3153 18.4758 16.4654 18.3299C16.6155 18.184 16.6998 17.9861 16.6998 17.7797V16.817C16.6998 16.8119 16.6977 16.8069 16.6941 16.8033C16.6905 16.7997 16.6856 16.7977 16.6805 16.7977Z" fill="#12376B"/>
<path d="M5.76119 5.88373L2.77877 5.88894C2.3131 5.88975 1.93627 6.26791 1.93708 6.73357L1.93719 6.79803C1.938 7.26369 2.31616 7.64053 2.78183 7.63972L5.76424 7.63451C6.22991 7.6337 6.60675 7.25554 6.60593 6.78988L6.60582 6.72543C6.60501 6.25976 6.22685 5.88292 5.76119 5.88373Z" fill="#12376B"/>
<path d="M27.2197 5.88632H24.2373C23.7717 5.88632 23.3942 6.26382 23.3942 6.72949V6.79394C23.3942 7.25961 23.7717 7.6371 24.2373 7.6371H27.2197C27.6854 7.6371 28.0629 7.25961 28.0629 6.79394V6.72949C28.0629 6.26382 27.6854 5.88632 27.2197 5.88632Z" fill="#12376B"/>
<path d="M5.68528 10.3864L3.13394 11.9013C2.72908 12.1416 2.59575 12.6647 2.83614 13.0696L2.86126 13.1119C3.10165 13.5168 3.62472 13.6501 4.02958 13.4097L6.58092 11.8948C6.98578 11.6544 7.11911 11.1314 6.87872 10.7265L6.85359 10.6842C6.61321 10.2793 6.09014 10.146 5.68528 10.3864Z" fill="#12376B"/>
<path d="M26.8667 11.9001L24.3153 10.3852C23.9105 10.1448 23.3874 10.2782 23.147 10.683L23.1219 10.7253C22.8815 11.1302 23.0148 11.6533 23.4197 11.8936L25.971 13.4085C26.3759 13.6489 26.899 13.5156 27.1393 13.1107L27.1645 13.0684C27.4049 12.6635 27.2715 12.1405 26.8667 11.9001Z" fill="#12376B"/>
<path d="M30 26.8723V27.0832C29.9289 27.4207 29.7596 27.6498 29.492 27.7705C29.3607 27.8295 29.1934 27.8588 28.9898 27.8584C25.8879 27.8553 22.8348 27.8549 19.8305 27.8572C19.8047 27.8572 19.7879 27.8695 19.7801 27.8942C19.7279 28.06 19.6588 28.2358 19.5762 28.3852C19.0355 29.3559 18.1986 29.8942 17.0654 30H12.9275C11.652 29.884 10.6113 29.1152 10.2117 27.8772C10.2099 27.8716 10.2063 27.8667 10.2014 27.8632C10.1966 27.8597 10.1908 27.8579 10.1848 27.8578C7.19609 27.8555 4.09668 27.8553 0.886523 27.8572C0.424805 27.8572 0.0943359 27.5379 0 27.0791V26.8635C0.0773438 26.5061 0.272266 26.2695 0.584766 26.1539C0.810352 26.0701 1.07168 26.1 1.31074 26.0988C1.33027 26.0988 1.34004 26.0891 1.34004 26.0695C1.34316 25.1621 1.34258 24.1776 1.33828 23.1158C1.33789 22.958 1.35859 22.824 1.40039 22.7139C1.51465 22.4162 1.81641 22.1807 2.13809 22.1608C2.27012 22.1529 2.41387 22.168 2.56934 22.2059C3.04512 22.3227 3.47031 22.4147 3.84492 22.4818C5.15039 22.7151 6.49922 22.7217 7.89141 22.5018C8.85527 22.35 9.82734 22.183 10.8111 22.0817C11.2971 22.0317 11.6818 22.0176 11.9654 22.0395C13.1531 22.1309 14.1715 22.6934 14.9414 23.6373C14.9586 23.6584 14.9756 23.6584 14.9924 23.6373C15.8625 22.5381 17.1428 21.9592 18.5215 22.0377C19.6295 22.101 20.7908 22.2996 21.8789 22.4795C23.1988 22.6975 24.4779 22.7188 25.7162 22.5434C26.1404 22.4832 26.6486 22.3807 27.2408 22.2358C27.4982 22.1725 27.6834 22.1473 27.7963 22.1602C28.1801 22.2029 28.4994 22.4824 28.5732 22.8598C28.585 22.9184 28.5908 23.0891 28.5908 23.3719C28.5904 24.2973 28.591 25.1963 28.5926 26.069C28.5926 26.0897 28.6029 26.1 28.6236 26.1C28.8814 26.1012 29.1768 26.066 29.417 26.1545C29.7311 26.2705 29.9254 26.5098 30 26.8723ZM10.9002 26.0959C11.4527 26.0947 11.8266 26.4785 11.8354 27.0358C11.8465 27.7512 12.4752 28.2475 13.1572 28.244C14.3428 28.2377 15.5557 28.2381 16.7959 28.2451C17.4463 28.2492 17.9561 27.9182 18.133 27.2731C18.1564 27.1879 18.1674 27.1037 18.1658 27.0205C18.1535 26.4627 18.5859 26.0977 19.1016 26.0977C21.6734 26.0988 24.242 26.099 26.8072 26.0983C26.8141 26.0983 26.8206 26.0956 26.8255 26.0909C26.8303 26.0862 26.833 26.0797 26.833 26.0731V24.167C26.833 24.1412 26.8205 24.1309 26.7955 24.136C25.3338 24.4399 23.8588 24.501 22.3705 24.3193C21.2836 24.1869 20.0871 23.9484 18.8385 23.8231C18.4889 23.7879 18.2221 23.7817 18.0381 23.8043C16.998 23.9332 16.1895 24.6346 15.8771 25.6336C15.7576 26.0151 15.6416 26.342 15.2021 26.4469C14.6338 26.5828 14.2178 26.2617 14.083 25.7215C13.824 24.6861 12.9814 23.9901 11.9437 23.8113C11.8008 23.7867 11.65 23.7801 11.4914 23.7914C10.1197 23.8899 8.72109 24.184 7.4291 24.3328C5.99004 24.4985 4.55957 24.4328 3.1377 24.136C3.11191 24.1309 3.09902 24.1412 3.09902 24.167V26.0766C3.09902 26.0822 3.10125 26.0875 3.1052 26.0915C3.10916 26.0954 3.11452 26.0977 3.12012 26.0977C5.98574 26.1004 8.5791 26.0998 10.9002 26.0959Z" fill="#12376B"/>
</g>
<defs>
<clipPath id="clip0_4_42">
<rect width="30" height="30" fill="white"/>
</clipPath>
</defs>
</svg>
